<?xml version="1.0" encoding="UTF-8"?>
<svg id="Layer_1" data-name="Layer 1" xmlns="http://www.w3.org/2000/svg" viewBox="0 0 3271.04 324.88">
  <defs>
    <style>
      .cls-1 {
        fill: #fff;
      }
    </style>
  </defs>
  <g>
    <path class="cls-1" d="M1891.15,172.25v149.23h-8.99v-134.94l-63.33,89.32h-2.3l-63.33-89.11v134.73h-9.2v-149.23h10.03l63.54,89.75,63.54-89.75h10.03Z"/>
    <path class="cls-1" d="M2073.23,283.95h-89.03l-16.51,37.52h-10.03l65.63-149.23h10.87l65.63,149.23h-10.03l-16.51-37.52ZM1987.95,274.79h81.51l-40.75-92.52-40.76,92.52Z"/>
    <path class="cls-1" d="M2217.9,264.13h-42.43v57.35h-9.2v-149.23h63.33c28.63,0,47.44,18.55,47.44,46.05s-18.6,45.62-47.23,45.83l51.83,57.35h-11.91l-51.83-57.35ZM2229.6,181.41h-54.13v73.76h54.13c23.62,0,38.25-14.5,38.25-36.88s-14.63-36.88-38.25-36.88Z"/>
    <path class="cls-1" d="M2439.33,321.47l-78.79-74.61v74.61h-9.2v-149.23h9.2v68.64l72.73-68.64h12.75l-75.66,71.42,81.93,77.81h-12.96Z"/>
    <path class="cls-1" d="M2619.07,312.52v8.95h-103.04v-149.23h100.32v8.95h-91.12v60.33h86.73v8.95h-86.73v62.04h93.84Z"/>
    <path class="cls-1" d="M2795.63,181.41h-53.92v140.06h-8.99v-140.06h-53.92v-9.17h116.83v9.17Z"/>
    <path class="cls-1" d="M2860.77,172.25h9.2v149.23h-9.2v-149.23Z"/>
    <path class="cls-1" d="M3067.03,172.25v149.23h-9.61l-96.35-134.94v134.94h-9.2v-149.23h10.03l96.14,134.52v-134.52h8.99Z"/>
    <path class="cls-1" d="M3271.04,244.73v55.64c-15.05,15.56-34.07,23.45-55.18,23.45-44.31,0-75.03-31.34-75.03-76.96s30.51-76.96,75.45-76.96c19.86,0,37.62,7.46,52.25,22.17l-6.06,6.61c-12.54-13-28.84-19.83-46.19-19.83-39.5,0-66.25,27.5-66.25,68s26.96,68,65.83,68c17.77,0,34.9-7.04,46.19-18.55v-42.64h-52.67v-8.95h61.66Z"/>
  </g>
  <g>
    <path class="cls-1" d="M687.14,172.25v149.23h-28.84v-100.83l-47.23,60.33h-5.85l-47.23-60.33v100.83h-28.84v-149.23h25.92l53.09,68.22,52.88-68.22h26.12Z"/>
    <path class="cls-1" d="M863.54,292.48h-75.45l-12.12,28.99h-31.35l65.63-149.23h31.56l65.42,149.23h-31.56l-12.12-28.99ZM798.75,266.47h54.34l-27.17-65.02-27.17,65.02Z"/>
    <path class="cls-1" d="M950.48,246.86c0-46.26,31.98-77.81,77.33-77.81,21.53,0,40.13,7.89,54.97,23.24l-18.6,18.12c-9.61-9.81-21.32-14.71-35.53-14.71-29.05,0-48.91,20.68-48.91,51.16s19.85,51.16,48.91,51.16c14.42,0,28.01-5.54,38.04-15.56l17.56,19.61c-15.05,15.14-33.86,22.6-56.01,22.6-46.4,0-77.75-31.98-77.75-77.81Z"/>
    <path class="cls-1" d="M1257.92,295.68v25.79h-111.19v-149.23h109.31v25.58h-80.88v35.6h77.12v24.94h-77.12v37.31h82.76Z"/>
    <path class="cls-1" d="M1457.93,246.86c0,44.98-29.68,74.61-74.4,74.61h-57.68v-149.23h57.68c44.73,0,74.4,29.63,74.4,74.61ZM1428.88,246.86c0-28.99-18.6-48.18-45.35-48.18h-28.84v96.36h28.84c26.96,0,45.35-19.19,45.35-48.18Z"/>
    <path class="cls-1" d="M1515.2,246.86c0-46.9,30.72-78.02,77.12-78.02s76.91,31.12,76.91,78.02-30.72,78.02-76.91,78.02-77.12-31.12-77.12-78.02ZM1639.97,246.86c0-30.49-19.23-51.16-47.65-51.16s-47.86,20.68-47.86,51.16,19.23,51.16,47.86,51.16,47.65-20.68,47.65-51.16Z"/>
  </g>
  <g id="MM_ICON" data-name="MM ICON">
    <polygon class="cls-1" points="0 208.27 0 321.56 64.26 321.56 64.26 272.53 0 208.27"/>
    <polygon class="cls-1" points="455.36 109.56 455.36 321.56 391.1 321.56 391.1 173.82 455.36 109.56"/>
    <polygon class="cls-1" points="222.89 61.9 212.45 61.9 92.68 180.98 10.44 99.21 0 99.21 0 180.23 92.68 272.91 158.63 207.08 158.63 321.56 222.89 321.56 222.89 61.9"/>
    <polygon class="cls-1" points="444.92 0 309.29 134.81 244.78 70.69 244.78 162.39 309.29 226.74 455.36 81.03 455.36 0 444.92 0"/>
  </g>
</svg>